<?xml version="1.0" ?>
<svg xmlns="http://www.w3.org/2000/svg" width="256" height="256" viewBox="0 0 256 256">
  <defs>
    <linearGradient id="mainGrad" x1="0%" y1="0%" x2="100%" y2="100%">
      <stop offset="0%" style="stop-color:#48bb78;stop-opacity:1"/>
      <stop offset="100%" style="stop-color:#38b2ac;stop-opacity:1"/>
    </linearGradient>
  </defs>
  <rect width="256" height="256" fill="#1a202c" rx="32"/>
  <polygon points="128,40 200,80 200,160 128,200 56,160 56,80" fill="url(#mainGrad)" opacity="0.2" stroke="#48bb78" stroke-width="3"/>
  <g opacity="0.6">
    <line x1="70" y1="90" x2="186" y2="90" stroke="#48bb78" stroke-width="2"/>
    <line x1="70" y1="120" x2="186" y2="120" stroke="#48bb78" stroke-width="2"/>
    <line x1="70" y1="150" x2="186" y2="150" stroke="#48bb78" stroke-width="2"/>
    <line x1="90" y1="70" x2="90" y2="170" stroke="#48bb78" stroke-width="2"/>
    <line x1="128" y1="70" x2="128" y2="170" stroke="#48bb78" stroke-width="2"/>
    <line x1="166" y1="70" x2="166" y2="170" stroke="#48bb78" stroke-width="2"/>
    <circle cx="90" cy="90" r="4" fill="#48bb78"/>
    <circle cx="128" cy="90" r="4" fill="#48bb78"/>
    <circle cx="166" cy="90" r="4" fill="#48bb78"/>
    <circle cx="90" cy="120" r="4" fill="#48bb78"/>
    <circle cx="128" cy="120" r="4" fill="#48bb78"/>
    <circle cx="166" cy="120" r="4" fill="#48bb78"/>
    <circle cx="90" cy="150" r="4" fill="#48bb78"/>
    <circle cx="128" cy="150" r="4" fill="#48bb78"/>
    <circle cx="166" cy="150" r="4" fill="#48bb78"/>
  </g>
  <g>
    <text x="128" y="148" font-family="SF Mono, Monaco, monospace" font-size="72" font-weight="bold" fill="#48bb78" text-anchor="middle">L</text>
  </g>
  <g>
    <rect x="170" y="170" width="60" height="24" fill="#2d3748" rx="4" stroke="#48bb78" stroke-width="1.5"/>
    <text x="200" y="186" font-family="SF Mono, Monaco, monospace" font-size="12" font-weight="bold" fill="#48bb78" text-anchor="middle">AI</text>
  </g>
</svg>
